# xmcd
#
# Track frame offsets:
#	150
#	14587
#	32919
#
# Disc length: 627 seconds
#
# Revision: 0
# Processed by: cddbd v1.5PL3 Copyright (c) Steve Scherf et al.
# Submitted via: audiograbber 1.82.02
#
DISCID=1f027103
DTITLE=Adam Harvey and Gina Jeffreys - The Kokoda Anthem Battle For Australia
DYEAR=1900
DGENRE=
TTITLE0=The Kokoda Anthem Battle For Australia
TTITLE1=The Kokada Anthem Battle For Australia Withode
TTITLE2=e Kokada Anthem Battle For Australia Instrumental
EXTD=
EXTT0=
EXTT1=
EXTT2=
PLAYORDER=
